<svg xmlns="http://www.w3.org/2000/svg" viewBox="0 0 1200 520"><defs><linearGradient id="b" x2="1" y2="1"><stop stop-color="#07090d"/><stop offset=".55" stop-color="#19060b"/><stop offset="1" stop-color="#050608"/></linearGradient><radialGradient id="r"><stop stop-color="#ff2148" stop-opacity=".6"/><stop offset="1" stop-color="#ff1744" stop-opacity="0"/></radialGradient><linearGradient id="gold"><stop stop-color="#ffe9a1"/><stop offset=".45" stop-color="#d6ad43"/><stop offset="1" stop-color="#7d5416"/></linearGradient></defs><rect width="1200" height="520" rx="36" fill="url(#b)"/><circle cx="980" cy="150" r="320" fill="url(#r)"/><g opacity=".16" stroke="#fff"><path d="M0 420 1200 80M0 475 1200 135"/><circle cx="1060" cy="55" r="310"/></g><g transform="translate(790 75)"><ellipse cx="180" cy="350" rx="210" ry="42" fill="#000" opacity=".7"/><circle cx="180" cy="170" r="142" fill="#020305" stroke="url(#gold)" stroke-width="9"/><circle cx="180" cy="170" r="62" fill="#fff"/><text x="180" y="194" text-anchor="middle" font-family="Arial Black" font-size="74" fill="#050608">8</text><g fill="url(#gold)" stroke="#5d3d0b" stroke-width="5"><ellipse cx="55" cy="345" rx="64" ry="18"/><ellipse cx="55" cy="325" rx="64" ry="18"/><ellipse cx="305" cy="350" rx="66" ry="19"/><ellipse cx="305" cy="328" rx="66" ry="19"/><ellipse cx="235" cy="385" rx="68" ry="20"/></g></g><g font-family="Arial,sans-serif" fill="#fff"><text x="70" y="108" font-size="22" font-weight="800" letter-spacing="5" fill="#ff4261">BLACK BALL • PIX</text><text x="70" y="205" font-family="Arial Black" font-size="76">JOGUE SEM</text><text x="70" y="282" font-family="Arial Black" font-size="76" fill="#ff2449">ESPERAR.</text><text x="70" y="338" font-size="27" fill="#b8bec8">Depósito rápido, interface simples</text><text x="70" y="376" font-size="27" fill="#b8bec8">e saldo pronto para as mesas.</text><rect x="70" y="414" width="270" height="62" rx="18" fill="#fff"/><text x="205" y="454" text-anchor="middle" font-size="21" font-weight="900" fill="#08090c">DEPOSITAR AGORA</text></g></svg>